# xmcd CD database file
#
# Track frame offsets:
#	150
#	19687
#	27222
#	50430
#	70235
#	89457
#	112900
#	147142
#	167577
#	192852
#	221155
#	253962
#	277107
#
# Disc length: 4036 seconds
#
# Revision: 2
# Processed by: cddbd v1.5.1PL2 Copyright (c) Steve Scherf et al.
# Submitted via: cdripper 1,0,33,916
#
DISCID=bc0fc20d
DTITLE=Jane Siberry - Summer In The Yukon
DYEAR=1992
DGENRE=Rock
TTITLE0=The life Is The Red Wagon
TTITLE1=Miss Punta Blanca
TTITLE2=Calling All Angels
TTITLE3=Above The Treeline
TTITLE4=In The Blue Light
TTITLE5=Seven Steps to The Wall
TTITLE6=Mimi On The Beach
TTITLE7=The Walking (And Constantly)
TTITLE8=The Very Large Hat
TTITLE9=The Lobby
TTITLE10=Red High Heels
TTITLE11=Map Of The World (part II)
TTITLE12=The Taxi Ride
EXTD=YEAR: 1992
EXTT0=
EXTT1=
EXTT2=
EXTT3=
EXTT4=
EXTT5=
EXTT6=
EXTT7=
EXTT8=
EXTT9=
EXTT10=
EXTT11=
EXTT12=
PLAYORDER=
